<?xml version="1.0" encoding="utf-8"?>
<!-- Generator: Adobe Illustrator 16.2.1, SVG Export Plug-In . SVG Version: 6.00 Build 0)  -->
<!DOCTYPE svg PUBLIC "-//W3C//DTD SVG 1.1//EN" "http://www.w3.org/Graphics/SVG/1.1/DTD/svg11.dtd">
<svg version="1.1" id="Layer_1" xmlns="http://www.w3.org/2000/svg" xmlns:xlink="http://www.w3.org/1999/xlink" x="0px" y="0px"
	 width="400px" height="60px" viewBox="0 0 400 60" enable-background="new 0 0 400 60" xml:space="preserve">
<g id="OperaH__x26__Bridge">
	<g>
		<path fill="#28365C" d="M71.801,27.32c0,0,7.601-1.584,16.548,1.901c0,0,6.176-2.692,9.502-2.455l-5.385,8.716l-1.424-1.507
			l-4.592,0.08l-1.583,3.246h-0.872C83.995,37.302,77.265,30.41,71.801,27.32z"/>
		<path fill="#28365C" d="M96.347,18.29c0,0,9.026-2.061,18.053,3.09c0,0-3.325-0.396-6.255,0.316l3.722,7.21
			c0,0-2.693,5.149-4.277,6.02l-1.503-0.079L96.347,18.29z"/>
		<path fill="#28365C" d="M108.856,22.013c0,0,7.828-1.738,17.487,3.095l-10.837,9.898L108.856,22.013z"/>
		<polygon fill="#28365C" points="96.347,18.29 98.01,20.903 99.91,35.085 99.118,35.322 		"/>
		<path fill="#28365C" d="M112.198,29.454l2.054,4.11h-4.824C109.428,33.564,110.765,32.036,112.198,29.454z"/>
		<polygon fill="#28365C" points="94.524,32.896 92.901,35.667 85.066,37.723 76.468,37.771 76.324,41.834 80.577,41.879 
			92.901,37.389 95.002,37.389 98.966,35.905 98.345,32.943 		"/>
		<path fill="#28365C" d="M128.009,24.33c0,0,5.16-12.761,22.977-18.4l0.288,0.287c0,0-5.59,7.838-9.077,29.966l-1.862-0.048
			L128.009,24.33z"/>
		<path fill="#28365C" d="M127.436,24.245c0,0,3.202-7.912,13.261-14.031l0.593-5.183c-16.959,1.721-23.981,16.632-23.981,16.632
			c7.07,1.195,9.841,3.441,9.841,3.441l-8.217,7.647l8.12,0.908l8.317-1.815L127.436,24.245z"/>
		<path fill="#28365C" d="M148.073,13.729c0,0-1.099,3.298-1.386,4.445c0,0,0.955-0.955,3.678-1.721v-2.772L148.073,13.729z"/>
		<path fill="#28365C" d="M146.448,18.955c0,0-2.531,9.142-3.728,17.229h0.48l1.48-3.24l5.911-1.014l-2.929-13.762L146.448,18.955z"
			/>
		<path fill="#28365C" d="M148.215,17.936c0,0,1.815,9.607,3.917,16.776h0.622c0,0,3.535-16.06,6.305-19.932
			C159.059,14.78,152.802,15.449,148.215,17.936z"/>
		<path fill="#28365C" d="M157.387,19.322c0,0-2.628,8.555-4.059,15.103l1.909-0.573l1.243-2.391l4.539-0.956l0.811,2.104h1.147
			c0,0,4.8-8.342,7.977-11.52v-0.525c0,0-4.49-0.43-8.789,0.286v-1.099L157.387,19.322z"/>
		<polygon fill="#28365C" points="82.135,41.693 92.995,37.733 95.181,37.733 99.479,36.05 99.479,35.476 101.629,35.045 
			144.299,36.444 144.514,35.548 151.141,34.328 151.392,35.081 153.255,35.081 160.098,32.931 162.82,32.931 164.791,33.972 
			169.305,33.972 169.305,33.575 164.97,33.575 163.394,32.609 164.468,30.781 166.797,31.784 170.558,32.394 171.921,32.394 
			170.739,33.899 170.739,35.045 169.736,35.045 169.736,35.87 172.242,35.87 172.099,39.85 170.595,39.85 170.595,44 23.637,44 
			23.637,42.216 80.922,42.216 		"/>
		<polygon fill="#28365C" points="126.367,32.769 126.367,36.728 127.515,36.728 127.743,32.826 		"/>
		<polygon fill="#28365C" points="115.988,33.57 117.536,34.317 117.536,36.382 114.839,36.382 114.839,32.424 		"/>
		<polygon fill="#28365C" points="98.784,23.302 100.159,33.515 104.747,33.515 		"/>
	</g>
	<g>
		<rect x="33.763" y="35.237" fill="#28365C" width="7.833" height="6.402"/>
		<polygon fill="#28365C" points="50.195,21.854 48.953,21.854 48.953,35.333 42.361,35.333 42.361,41.737 53.922,41.737 
			53.922,35.333 50.195,35.333 		"/>
		<polygon fill="#28365C" points="48.571,34.663 48.571,33.038 48.571,29.501 44.75,29.501 44.75,33.038 36.63,33.038 36.63,34.663 
			44.75,34.663 		"/>
		<polygon fill="#28365C" points="58.222,33.899 58.222,33.038 50.769,33.038 50.769,34.759 54.494,34.759 54.494,41.64 
			61.086,41.64 61.086,33.899 		"/>
	</g>
	<polygon fill="#28365C" points="29.225,33.11 30.084,34.688 31.017,34.688 31.303,36.265 31.303,37.841 30.729,38.416 31.59,39.85 
		33.238,41.497 33.238,34.545 35.173,34.545 35.173,32.967 	"/>
	<polygon fill="#28365C" points="61.797,41.719 68.631,41.719 70.712,39.638 73.535,39.638 73.535,38.45 69.97,38.45 	"/>
	<polygon fill="#28365C" points="71.01,39.936 69.079,42.216 75.69,42.216 75.69,40.011 	"/>
	<path fill="#28365C" d="M342.567,30.987l-15.917-0.725l-0.17-2.388l-0.192-1.886l-0.499-1.655v-0.769h-0.58v-0.617l-2.922,0.078
		v0.577l-0.613,0.037v0.732l-0.081,1.271l-0.305,1.385v2.54h-0.617v-2.04l-0.269-1.539l-0.346-0.924l-0.23-0.808h-0.423v-0.424
		h-2.77v0.576h-0.384l-0.27,0.771v0.653l-2.849-1.425l-3.613-2.271l-1.682-0.997v-0.078h-0.133l-1.688-1.002l-3.538-1.923
		l-4.135-1.916v-0.037h-0.096l-4.924-1.819l-3.924-1.271l-3.193-0.846l-2.652-0.538l-2-0.23v-0.809l-1.153-0.153v0.5l-0.694,0.038
		l-8.961-0.692l-1.038-0.692h-0.923l-0.309,0.77h-2.999l-5.654,0.5l-3.616,0.577l-3.539,0.694l-6.962,1.578l-6.385,2.001
		l-6.577,2.386l-4.962,2l-7.462,2.964l-3.538,1.231l-2.654,0.692l0.048,3.204l-1.12,0.018l-2.913,0.055l-0.244-5.123l-0.194-0.847
		l-0.232-1.116l-0.344-1.385l-0.154-0.963h-0.539l-0.192-0.692l-4.5-0.192v0.729h-0.615v1.078l-0.307,0.964l0.133,1.174
		l-0.365,0.365v6.472l-36.292,2.153l6.305,1.22l30.06-1.664l-0.072,2.633l-1.229,0.192v4.445h-0.443c0,0-0.366-0.365-0.597-0.365
		c-0.23,0,0.116,0.115,0.116,0.115l-0.27,0.269l-1.039,0.193V44h20.808l0.156-0.886l-0.423-1.077l-1.309-0.271l-1.732-0.229
		l-0.077-1.136l2.562-2.149l2.903-2.331l7.058-5.196l1.3-0.931l3.857-0.038l5.197-0.035l8.239-0.108l7.88-0.215l7.524-0.105
		l7.379,0.105l7.021,0.18l6.808,0.108l6.27,0.25l2.939,0.144l5.014,0.286l4.12,0.146l3.044,0.247l2.44,2.117l2.793,2.867
		l2.688,2.617l1.324,1.355l-0.199,1.053l12.845,0.19v-3.463v-1.5h-0.498l-0.276-3.838l15.786,0.265V30.987z M215.457,26.579
		l0.747,1.663l-0.747,0.01V26.579z M212.821,38.764l-0.924-6.926h-0.386l-0.689-1.61l2.557-0.221h0.821l0.133,8.757H212.821z
		 M218.933,36.932l-0.466,0.352l-2.015,1.72l-0.017-0.239h-0.979v-8.757h0.563l2.912,6.495V36.932z M218.933,35.675l-2.566-5.668
		h0.633l1.934,4.297V35.675z M218.933,33.396l-1.514-3.389h1.514V33.396z M218.933,28.21l-0.895,0.006l-1.412,0.02l-1.094-2.449
		l3.4-1.23V28.21z M219.361,36.604v-1.343l0.452,1.003L219.361,36.604z M219.934,35.642l-0.572-1.282v-4.353h0.572V35.642z
		 M219.934,28.203l-0.572,0.005v-3.221l0.572,1.139V28.203z M219.934,25.521l-0.572-1.09v-0.033l0.252-0.09l0.32-0.126V25.521z
		 M225.023,25.053l1.787,3.127h-1.787V25.053z M220.365,24.576l1.889,3.611l-0.914,0.008l-0.975-1.854V24.576z M220.365,26.981
		l0.61,1.216l-0.61,0.003V26.981z M223.589,33.413l-1.72,1.291l-1.504,1.14v-5.845l1.607-0.044l1.616,3.347V33.413z M223.589,32.549
		l-1.275-2.602l0.803-0.021l0.473,0.853V32.549z M223.589,30.196l-0.164-0.279l0.164-0.005V30.196z M223.589,28.18h-0.105
		l-0.833,0.005l-2.151-4.221l3.09-1.201V28.18z M224.593,32.66l-0.572,0.431v-1.537l0.572,1.033V32.66z M224.593,31.918
		l-0.572-0.984v-1.034l0.572-0.016V31.918z M224.593,28.18h-0.572v-4.878l0.572,1V28.18z M224.593,23.624l-0.57-1.03l0.57-0.221
		V23.624z M227.959,30.287l-1.647,1.084l-1.288,0.967v-2.465l1.647-0.044l1.288-0.013V30.287z M227.959,28.18h-0.844l-2.092-3.779
		v-1.96l2.936,4.753V28.18z M227.959,26.409l-2.685-4.302l0.607-0.237l2.077-0.864V26.409z M228.39,30.005v-0.192l0.3-0.003
		L228.39,30.005z M229.249,28.18h-0.859v-6.707l0.859,1.243V28.18z M229.249,21.876l-0.585-0.854l-0.069-0.281l0.654-0.272V21.876z
		 M232.043,27.606l-0.85,0.559l-0.939,0.015h-0.573v-4.841l2.787,4.032L232.043,27.606z M232.581,26.732l-2.9-4.23v-2.211
		l0.019-0.009l2.882,4.293V26.732z M232.581,23.756l-2.462-3.647l2.462-1.024V23.756z M247.378,14.387v2.241l-1.558-1.835
		L247.378,14.387z M245.688,15.219l1.69,2.039v2.22l-1.69-1.997V15.219z M245.688,18.161l1.589,1.926l-1.589,0.592V18.161z
		 M245.259,14.939v2.032l-1.41-1.665L245.259,14.939z M243.374,15.431l0.164-0.043l-0.04,0.119l1.761,2.133v2.597l-1.885-2.227
		V15.431z M242.941,15.544v1.957l-1.356-1.603L242.941,15.544z M241.539,16.466l1.402,1.701v3.305l-1.402-1.882V16.466z
		 M241.539,20.398l1.193,1.638l-1.193,0.56V20.398z M239.71,16.387l1.4-0.364v2.991l-1.837-2.462L239.71,16.387z M238.923,16.686
		l0.081-0.032l-0.062,0.177l2.169,2.977v2.648l-2.188-2.969V16.686z M237.462,17.237l1.031-0.391v2.056l-1.031-1.401V17.237z
		 M237.462,18.229l1.031,1.437v3.694l-1.031-1.396V18.229z M237.462,22.827l0.944,1.309l-0.944,0.504V22.827z M237.032,17.399v3.984
		l-2.308-3.113L237.032,17.399z M234.471,18.688l2.562,3.544v2.14l-0.104-0.052l-2.458-3.157V18.688z M234.471,21.663l2.242,3.039
		l0.017,0.327l-1.139,0.606l-1.12,0.62V21.663z M233.012,18.917l1.032-0.389v2.081l-1.032-1.324V18.917z M233.012,19.683
		l1.032,1.399v4.839l-1.032-1.529V19.683z M233.012,25.215l0.903,1.35l-0.903,0.504V25.215z M234.354,28.113l-1.587,0.025
		l1.476-0.862l0.061,0.616l0.051,0.006V28.113z M237.113,26.369v1.689l-2.417,0.049l-0.252,0.005v-0.204l0.019,0.002l0.03-0.778
		l1.635-0.96l0.936-0.536l0.07,0.733H237.113z M238.851,28.023l-1.63,0.033v-1.519l0.089,0.012l0.035-0.969l0.088-0.157l0.883-0.507
		l0.308-0.157l0.122,0.211l0.089,0.933h0.017V28.023z M238.923,20.264l1.911,2.663l-1.337,0.631l-0.574,0.304V20.264z
		 M241.375,27.982l-1.341,0.019l-1.021,0.02v-2.296h-0.011l0.029-0.771l0.286-0.521l-0.002-0.028l1.801-0.921l0.206,2.222
		l0.053,0.014V27.982z M243.311,27.96l-1.808,0.021v-2.229l0.011,0.002l0.09-2.518l1.452-0.737l0.202,2.133l0.053,0.013V27.96z
		 M243.374,18.688l1.811,2.194l-1.811,0.852V18.688z M245.457,27.932l-2.037,0.026v-3.287l0.029,0.008l0.086-2.424l0.33-0.169
		l1.402-0.663l0.116,0.174l0.048,2.104h0.025V27.932z M247.595,27.905l-1.94,0.025V23.43h-0.009v-1.833l0.168-0.383l-0.009-0.045
		l0.713-0.337l0.879-0.32l0.09,0.129l0.049,2.102h0.06V27.905z M313.533,25.208l2.09,1.184l-0.693,1.644l-0.093-0.034l-1.304-0.654
		V25.208z M313.533,27.882l0.589,0.334l0.637,0.218l-0.441,1.048l-0.784-0.034V27.882z M313.63,31.115l-0.575,1.358l-0.51-0.495
		l-1.082-0.91L313.63,31.115z M312.992,27.576v1.849l-1.548-0.065l1.04-2.069L312.992,27.576z M312.672,26.916l0.32-0.637v0.797
		L312.672,26.916z M310.845,23.529l1.895,1.212c-0.48,0.074-1.235,0.187-1.895,0.286V23.529z M310.845,25.172
		c0.773-0.116,1.668-0.25,2.075-0.312l0.021,0.015l0.051,0.027v0.078c-0.428,0.09-1.413,0.3-2.147,0.455V25.172z M310.845,25.581
		c0.604-0.128,1.53-0.325,2.093-0.443l-0.218,0.431c-0.381,0.036-1.314,0.124-1.875,0.176V25.581z M310.845,25.89l1.797-0.17
		l-0.471,0.939l-1.326-0.756V25.89z M310.845,26.357l0.231,0.138l0.916,0.517l-1.147,2.272V26.357z M310.243,25.562l-0.413-0.237
		c0.13-0.019,0.292-0.044,0.475-0.071v0.295C310.284,25.554,310.265,25.559,310.243,25.562z M310.305,26.034v3.28l-0.714-0.022
		V25.61L310.305,26.034z M309.762,25.188l0.543-1.051v0.97C310.084,25.14,309.895,25.17,309.762,25.188z M307.837,21.606
		l1.563,0.996l0.038,0.022l-1.602-0.15V21.606z M307.837,22.618c0.396,0.037,1.401,0.133,1.865,0.178l0.229,0.146
		c-0.364,0.069-1.597,0.306-2.094,0.402V22.618z M307.837,23.487c0.511-0.097,1.812-0.344,2.271-0.432l0.188,0.12l-0.502,0.945
		l-1.956-0.301V23.487z M307.837,23.965c0.247,0.038,1.463,0.226,1.884,0.291l-0.18,0.337c-0.13,0.141-0.264,0.284-0.346,0.371
		l-0.27-0.152l-1.089-0.671V23.965z M307.837,24.573l0.23,0.129l0.982,0.587v0.229l-1.213,2.29V24.573z M309.05,26.567v2.475
		l-0.087-0.075l-0.821-0.641L309.05,26.567z M307.837,28.813l0.52,0.438l-0.52-0.018V28.813z M307.296,21.262v0.011
		c-0.263,0.036-1.507,0.202-2.154,0.288l-0.004-0.703c0.552,0.071,1.499,0.194,1.912,0.247L307.296,21.262z M306.762,27.976
		l0.534,0.396v0.845l-0.534-0.017V27.976z M305.146,22.34v-0.089c0.487,0.033,1.395,0.094,1.742,0.118l-0.076,0.129
		C306.483,22.466,305.68,22.391,305.146,22.34z M306.762,27.245v-3.273l0.534,0.298v3.394L306.762,27.245z M306.848,23.532
		c0.163,0.003,0.324,0.008,0.448,0.01v0.265L306.848,23.532z M306.804,23.39l0.492-0.942v0.952
		C307.159,23.397,306.979,23.393,306.804,23.39z M306.97,22.23c-0.463-0.031-1.414-0.096-1.824-0.123l-0.002-0.402
		c0.495-0.065,1.631-0.217,2.152-0.286v0.265L306.97,22.23z M306.017,20.448l0.749,0.475c-0.51-0.064-1.23-0.158-1.628-0.21
		l-0.007-0.72L306.017,20.448z M304.827,19.951c0.021-0.027,0.043-0.055,0.063-0.079l0.011,0.006
		c-0.023,0.027-0.048,0.061-0.074,0.095V19.951z M304.827,20.211c0.047-0.064,0.132-0.176,0.205-0.269l0.022,0.013l-0.228,0.271
		V20.211z M304.827,28.213c0.192-0.016,0.487-0.04,0.799-0.064c-0.328,0.045-0.603,0.08-0.799,0.104V28.213z M302.068,18.442
		l0.331,0.158l1.273,0.648l-1.604-0.208V18.442z M302.068,19.185c0.408,0.055,1.451,0.189,1.981,0.259l0.204,0.103
		c-0.578-0.031-1.742-0.097-2.186-0.122V19.185z M302.068,19.569l1.896,0.104c-0.673,0.137-1.537,0.312-1.896,0.384V19.569z
		 M302.068,21.234l1.278,0.773l-1.278,1.536V21.234z M301.28,23.452v-2.694l0.245,0.15v2.702L301.28,23.452z M301.525,24.289v2.478
		l-0.245-0.175V24.13L301.525,24.289z M301.28,20.239v-0.771h-0.417c0.017-0.021,0.037-0.041,0.054-0.063
		c0.085,0.015,0.37,0.061,0.608,0.097v0.814C301.45,20.293,301.366,20.266,301.28,20.239z M301.023,19.277
		c0.044-0.052,0.088-0.104,0.129-0.156c0.139,0.008,0.264,0.016,0.373,0.022v0.214L301.023,19.277z M301.268,18.984
		c0.099-0.12,0.191-0.229,0.258-0.311v0.325L301.268,18.984z M301.091,18.974l-1.551-0.088c0.69-0.174,1.648-0.415,1.985-0.501
		v0.066C301.438,18.559,301.27,18.755,301.091,18.974z M301.247,18.054c0.012,0.005,0.055,0.024,0.106,0.049
		c-0.064-0.004-0.146-0.006-0.24-0.013C301.192,18.067,301.242,18.055,301.247,18.054z M298.972,16.968l1.308,0.621l-1.308-0.035
		V16.968z M298.972,17.697c0.546,0.015,1.248,0.033,1.625,0.044l0.458,0.217c-0.104,0.028-0.239,0.066-0.397,0.109
		c-0.465-0.022-1.062-0.052-1.686-0.084V17.697z M298.972,18.126c0.431,0.022,0.857,0.044,1.248,0.064
		c-0.405,0.112-0.863,0.238-1.248,0.345V18.126z M298.972,18.686c0.558-0.155,1.231-0.344,1.702-0.474
		c0.324,0.017,0.6,0.031,0.798,0.04c-0.472,0.118-1.828,0.46-2.5,0.627V18.686z M298.972,19.028c0.083-0.013,0.14-0.025,0.144-0.025
		c0.011,0,1.055,0.062,1.859,0.108c-0.037,0.047-0.077,0.095-0.117,0.141l-0.021-0.004l-0.531,0.631l-0.803-0.375l-0.531-0.266
		V19.028z M299.41,22.326l-0.276-0.164l1.246-1.862l0.36,0.171v0.067L299.41,22.326z M300.74,21.023v2.083l-1.089-0.639
		L300.74,21.023z M300.679,20.052l-0.218-0.101c0.074-0.088,0.17-0.203,0.279-0.332v0.451
		C300.716,20.063,300.697,20.058,300.679,20.052z M298.972,19.635l1.148,0.543l-1.148,1.521V19.635z M298.972,22.678l0.129,0.069
		l-0.129,0.174V22.678z M298.972,23.371l0.37-0.492l0.057,0.032l0.947,0.614c-0.486-0.053-1.103-0.118-1.374-0.147V23.371z
		 M298.972,23.523c0.414,0.044,1.204,0.128,1.64,0.175l0.129,0.081v0.175c-0.449-0.063-1.353-0.193-1.769-0.252V23.523z
		 M298.972,23.847c0.282,0.039,1.208,0.172,1.769,0.252v0.192c-0.542,0.035-1.484,0.097-1.769,0.114V23.847z M298.972,24.55
		c0.421-0.028,1.334-0.086,1.769-0.114V25c-0.387-0.072-1.296-0.238-1.769-0.325V24.55z M298.972,24.819
		c0.39,0.071,1.295,0.237,1.769,0.326v0.308c-0.507-0.146-1.379-0.4-1.769-0.512V24.819z M300.74,25.602v0.603l-1.419-1.013
		C299.803,25.331,300.411,25.506,300.74,25.602z M298.344,16.676l0.088,0.035v0.322l-0.088,0.098V16.676z M298.344,17.694
		l0.01-0.013c0.026,0,0.049,0,0.078,0.001v0.273c-0.031-0.001-0.059-0.002-0.088-0.004V17.694z M298.344,18.097
		c0.029,0,0.057,0.002,0.088,0.004v0.586c-0.033,0.009-0.063,0.017-0.088,0.025V18.097z M298.344,18.859
		c0.026-0.008,0.057-0.016,0.088-0.024v0.133l-0.088-0.044V18.859z M298.344,19.337l0.088,0.042v2.37l-0.088-0.052V19.337z
		 M298.344,22.334l0.088,0.048v2.299l-0.088-0.049V22.334z M297.8,16.471v0.027c-0.134,0.047-0.305,0.111-0.499,0.183
		c-0.376-0.018-0.894-0.04-1.458-0.064l-0.002-0.207c0.872,0.026,1.644,0.051,1.953,0.06L297.8,16.471z M297.519,18.054
		l-0.284,0.315l-0.732-0.365C296.767,18.018,297.118,18.035,297.519,18.054z M296.698,17.87c0.348,0.011,0.709,0.021,0.958,0.029
		l-0.017,0.018C297.297,17.899,296.978,17.886,296.698,17.87z M297.346,18.868l0.286,0.133l-1.33,1.674l-0.349-0.161L297.346,18.868
		z M297.8,19.522v1.854l-0.015-0.008l-1.062-0.496L297.8,19.522z M297.613,18.559l0.187-0.225v0.318L297.613,18.559z
		 M297.779,17.761c-0.491-0.016-1.39-0.044-1.777-0.057c0.13-0.045,0.322-0.111,0.537-0.184l1.261,0.118v0.098L297.779,17.761z
		 M295.854,17.605l-0.002-0.151l0.343,0.032C296.064,17.531,295.949,17.571,295.854,17.605z M296.865,17.406
		c0.353-0.121,0.713-0.246,0.935-0.323v0.412C297.558,17.473,297.226,17.44,296.865,17.406z M296.52,17.374
		c-0.183-0.018-0.369-0.034-0.554-0.054c0.419-0.153,0.955-0.348,1.358-0.496c0.194,0.008,0.354,0.017,0.476,0.021v0.085
		C297.586,17.005,297.022,17.198,296.52,17.374z M295.849,17.212l-0.004-0.452c0.396,0.018,0.777,0.033,1.107,0.05
		C296.572,16.947,296.165,17.097,295.849,17.212z M297.674,16.696c0.049-0.017,0.093-0.033,0.126-0.047v0.053
		C297.767,16.7,297.726,16.698,297.674,16.696z M297.382,16.314l-1.543-0.051l-0.004-0.535L297.382,16.314z M295.639,19.659
		l0.23-0.422l-0.01-1.058l1.091,0.507l-1.312,1.466V19.659z M295.639,20.882l0.018-0.017L296,21.055l-0.361,0.451V20.882z
		 M295.639,22.232l0.766-0.958l1.373,0.751l-2.139,0.524V22.232z M292.505,14.504l0.801,0.271l0.838,0.314l-1.639-0.046V14.504z
		 M292.505,15.186c0.562,0.016,1.612,0.046,2.047,0.059l0.337,0.127c0.008,0.008,0.017,0.015,0.025,0.022v0.14
		c-0.499,0.003-1.802,0.008-2.409,0.01V15.186z M292.505,15.687c0.47-0.002,1.689-0.006,2.409-0.011v0.152
		c-0.57,0.036-1.895,0.125-2.409,0.159V15.687z M292.505,16.131c0.688-0.046,2.155-0.143,2.409-0.159v0.042
		c-0.025,0.049-0.065,0.122-0.112,0.21l-0.007,0.008l-2.29-0.07V16.131z M293.31,21.747l-0.465-0.233
		c0.09-0.018,0.182-0.035,0.242-0.048c0.594,0.046,1.414,0.109,1.827,0.14v0.236C294.505,21.815,293.736,21.771,293.31,21.747z
		 M294.914,21.984v0.643l-0.853-0.505l-0.427-0.213C294.093,21.937,294.66,21.97,294.914,21.984z M293.613,21.363
		c0.522-0.104,1.025-0.204,1.301-0.259v0.357C294.672,21.443,294.162,21.402,293.613,21.363z M293.078,21.321
		c-0.184-0.013-0.369-0.028-0.467-0.035v-0.28c0.336-0.087,1.602-0.419,2.118-0.554l0.185,0.079v0.428
		C294.413,21.059,293.541,21.23,293.078,21.321z M293.951,19.577l-0.248-0.094l1.211-1.475v2.018L293.951,19.577z M294.283,17.449
		l0.551,0.256l-1.545,1.623l-0.455-0.17L294.283,17.449z M294.091,17.007l-0.926-0.364c0.319,0.014,0.742,0.032,1.207,0.054
		L294.091,17.007z M294.704,17.204c-0.063-0.024-0.119-0.044-0.163-0.06l0.362-0.426c0.004,0,0.008,0,0.011,0v0.504
		C294.841,17.216,294.768,17.21,294.704,17.204z M292.505,16.305c0.4,0.013,1.252,0.038,2.163,0.066l-0.17,0.187
		c-0.688-0.03-1.328-0.058-1.756-0.077l-0.237-0.085V16.305z M292.505,16.76l1.339,0.487l0.019,0.009l-1.357,1.493V16.76z
		 M289.26,13.431l0.214,0.051l2.073,0.699l-2.287,0.77V13.431z M289.26,15.102c0.475-0.16,2.022-0.683,2.513-0.846l0.058,0.021
		h-0.05v0.298c-0.513,0.18-1.758,0.619-2.19,0.771l-0.33-0.12V15.102z M290.52,20.391l-0.978-0.438c0.536,0,1.669,0,2.238,0v0.418
		C291.457,20.375,290.938,20.385,290.52,20.391z M291.78,20.516v0.465l-0.517-0.258l-0.435-0.192L291.78,20.516z M289.287,19.81
		l0.054-0.062c0.58-0.041,1.879-0.128,2.439-0.168v0.229C291.187,19.81,289.927,19.81,289.287,19.81z M289.476,19.594l0.309-0.353
		c0.392,0.008,1.39,0.03,1.996,0.044v0.152C291.139,19.481,289.899,19.564,289.476,19.594z M290.297,15.956l0.343,0.125
		l-1.273,1.346l0.065-1.759L290.297,15.956z M289.945,15.473l1.456-0.198l-0.511,0.539L289.945,15.473z M291.075,16.238l0.627,0.229
		l-1.577,1.674l-0.508-0.191L291.075,16.238z M290.326,18.617l0.389,0.144c-0.167,0.006-0.351,0.014-0.53,0.02L290.326,18.617z
		 M290.055,18.93c0.363-0.016,0.754-0.03,1.012-0.04l0.306,0.113l0.315,0.137c-0.364-0.009-1.273-0.028-1.782-0.04L290.055,18.93z
		 M290.592,18.315l1.188-1.363v1.81L290.592,18.315z M291.309,15.965l0.472-0.554v0.723L291.309,15.965z M291.56,15.11
		c-0.419,0.056-0.983,0.133-1.41,0.19c0.482-0.17,1.19-0.421,1.631-0.574v0.148L291.56,15.11z M289.26,18.222l0.585,0.217
		l-0.349,0.372c-0.094,0.002-0.176,0.006-0.236,0.008V18.222z M289.26,18.961c0.027-0.001,0.061-0.002,0.098-0.002l-0.098,0.104
		V18.961z M288.796,13.318c0.011,0.011,0.019,0.022,0.031,0.035v0.093l-0.029,0.033c-0.398,0.153-1.702,0.654-2.35,0.904
		l-0.387-0.112c0.789-0.29,2.336-0.862,2.644-0.976L288.796,13.318z M287.45,19.125l-0.74-0.259
		c0.594,0.025,1.702,0.072,2.117,0.089v0.111C288.551,19.078,287.904,19.105,287.45,19.125z M288.827,19.209v0.426l-0.285-0.131
		l-0.726-0.251L288.827,19.209z M286.624,18.72c0.7-0.113,1.765-0.283,2.203-0.354v0.446
		C288.385,18.794,287.19,18.743,286.624,18.72z M286.108,18.656l-0.071-0.023c0.018-0.028,0.037-0.058,0.059-0.085l0.258-0.256
		c0.35-0.087,1.551-0.38,1.863-0.456l0.61,0.228v0.157C288.124,18.334,286.56,18.585,286.108,18.656z M287.709,15.094l1.011,0.337
		l-1.804,1.67l-0.887-0.256L287.709,15.094z M287.568,14.71l-0.892-0.26c0.382-0.147,1.268-0.489,1.869-0.721L287.568,14.71z
		 M287.396,17.534l0.379,0.139c-0.232,0-0.519-0.003-0.802-0.005l0.193-0.193L287.396,17.534z M287.694,17.815
		c-0.355,0.087-0.822,0.202-1.147,0.279l0.286-0.284C287.133,17.812,287.446,17.813,287.694,17.815z M288.794,17.642l-1.392-0.4
		l1.425-1.429v1.842L288.794,17.642z M287.966,14.825l0.861-0.9v1.15L287.966,14.825z M285.926,12.629l0.323,0.065l2.208,0.541
		c-0.646,0.237-2.017,0.746-2.531,0.936V12.629z M285.926,14.592l0.933,0.218l0.456,0.151l-1.389,1.39V14.592z M285.926,17.155
		l0.729,0.188l-0.349,0.32c-0.152-0.002-0.284-0.003-0.381-0.003V17.155z M285.926,17.804c0.062,0,0.138,0.002,0.229,0.002
		l-0.229,0.211V17.804z M285.495,12.543v0.052c-0.399,0.149-1.892,0.71-2.584,0.969l-0.368-0.077
		c0.734-0.252,2.329-0.801,2.825-0.971L285.495,12.543z M283.521,17.904l-0.427-0.113c0.094-0.028,0.211-0.063,0.328-0.099
		c0.672,0.032,1.698,0.082,2.072,0.101v0.213C285.114,17.985,284.145,17.937,283.521,17.904z M285.495,18.149v0.296l-0.142-0.051
		l-1.167-0.312L285.495,18.149z M285.438,14.479l-1.692,1.712l-0.433-0.126l-0.467-0.074v-0.213l1.439-1.569L285.438,14.479z
		 M283.172,13.619c0.4-0.15,1.446-0.542,2.098-0.787l-0.977,1.025L283.172,13.619z M283.882,16.628l0.878,0.226
		c-0.364,0.125-1.114,0.382-1.596,0.547L283.882,16.628z M285.01,16.918l0.277,0.071c-0.484,0.145-1.294,0.385-1.884,0.559
		c-0.068-0.003-0.148-0.007-0.202-0.009C283.687,17.373,284.531,17.083,285.01,16.918z M283.838,17.569
		c0.725-0.214,1.421-0.422,1.657-0.491v0.571C285.211,17.636,284.521,17.603,283.838,17.569z M284.178,16.314l1.317-1.416v1.794
		L284.178,16.314z M284.557,13.914l0.432-0.472c0.062,0.004,0.353,0.031,0.507,0.046v0.625L284.557,13.914z M285.112,13.308
		l0.383-0.418v0.455L285.112,13.308z M282.524,11.962l1.075,0.194l1.49,0.303c-0.69,0.236-1.944,0.669-2.565,0.882V11.962z
		 M282.524,13.787l1.108,0.27l0.388,0.09l-1.245,1.307l-0.251,0.038V13.787z M282.524,16.277l0.905,0.233l-0.162,0.164
		c-0.206,0-0.502,0.002-0.743,0.004V16.277z M282.524,16.822c0.186,0,0.408-0.003,0.602-0.005l-0.388,0.395l-0.214,0.048V16.822z
		 M282.988,17.673c-0.027,0.007-0.079,0.023-0.109,0.031l0.034-0.035C282.944,17.67,282.976,17.671,282.988,17.673z M281.913,11.852
		c0.045,0.019,0.11,0.043,0.18,0.07v0.022c-0.293,0.124-1.691,0.721-2.291,0.977l-0.354-0.07c0.708-0.301,2.215-0.935,2.396-1.012
		L281.913,11.852z M280.611,17.161l-0.849-0.207c0.122-0.037,0.265-0.08,0.411-0.124c0.718-0.002,1.175-0.004,1.919-0.006v0.258
		C281.785,17.098,281.149,17.132,280.611,17.161z M282.093,17.225v0.3l-1.001-0.246L282.093,17.225z M280.087,13.196l0.626,0.151
		l-1.414,1.414V13.07L280.087,13.196z M280.048,12.973c0.295-0.127,1.188-0.507,1.812-0.772l-0.949,0.948L280.048,12.973z
		 M279.343,15.719l0.674,0.094l-0.526,0.526l-0.215-0.19L279.343,15.719z M279.445,16.834c0.084,0,0.178-0.002,0.221-0.002
		c-0.041,0.013-0.115,0.035-0.176,0.055l-0.076-0.02C279.423,16.857,279.435,16.845,279.445,16.834z M279.575,16.689
		c0.2-0.211,0.48-0.508,0.786-0.828l1.193,0.168l0.43,0.107c-0.476,0.146-1.236,0.372-1.832,0.551
		C279.984,16.688,279.763,16.689,279.575,16.689z M280.658,16.686c0.597-0.179,1.148-0.345,1.435-0.431v0.425
		C281.569,16.682,281.325,16.683,280.658,16.686z M280.585,15.632c0.596-0.62,1.231-1.275,1.508-1.561v1.8L280.585,15.632z
		 M280.25,15.577l-0.861-0.136l0.053-0.321l1.608-1.689l1.043,0.253v0.05L280.25,15.577z M282.021,13.376l-0.769-0.158l0.84-0.882
		v1.054L282.021,13.376z M276.432,16.317l-0.232-0.035l0.092-0.103c0.473-0.15,1.563-0.497,1.937-0.617l0.354,0.05v0.066
		C277.957,15.862,276.778,16.213,276.432,16.317z M278.582,15.827v0.836l-0.251-0.062l-1.567-0.235
		C277.289,16.211,278.138,15.959,278.582,15.827z M275.98,15.837l-0.168-0.072l-0.031-0.431l0.686,0.03L275.98,15.837z
		 M276.485,15.968l0.526-0.573l0.887,0.123C277.582,15.618,276.979,15.811,276.485,15.968z M277.276,15.106l1.306-1.431v1.638
		L277.276,15.106z M276.806,15.031l-0.264-0.043l-0.789-0.011l-0.012-0.193l1.952-1.968l0.889,0.141v0.344L276.806,15.031z
		 M277.276,12.75l-1.418,1.558l0.022-1.735l0.588,0.05L277.276,12.75z M277.128,12.473c0.19-0.131,0.697-0.484,1.09-0.757
		l-0.732,0.806L277.128,12.473z M278.51,12.658l-0.584-0.078l0.656-0.66v0.752L278.51,12.658z M278.304,11.483
		c-0.353,0.244-1.046,0.726-1.389,0.962l-0.821-0.111c0.58-0.253,1.773-0.773,2.216-0.966L278.304,11.483z M275.537,11.12
		l2.655,0.143c-0.646,0.281-2.032,0.887-2.374,1.034l-0.281-0.037V11.12z M275.108,11.097v1.105l-0.072-0.011l-1.713-0.194
		c0.296-0.16,1.205-0.653,1.674-0.904L275.108,11.097z M274.116,15.267c-0.267,0.098-0.743,0.275-1.152,0.429l0.378-0.461
		L274.116,15.267z M273.579,14.943l0.585-0.708l0.604,0.729L273.579,14.943z M274.482,15.281l0.341,0.013
		c-0.359,0.174-1.03,0.501-1.413,0.684l-0.646-0.04l0.017-0.021C273.215,15.755,274.226,15.378,274.482,15.281z M275.076,15.332
		l0.032,0.037v0.748l-0.358-0.053l-1.051-0.067C274.176,15.768,274.821,15.455,275.076,15.332z M274.477,13.857l0.632-0.593v1.371
		L274.477,13.857z M274.27,13.601l-1.015-1.253l1.854,0.158v0.238L274.27,13.601z M274.726,11.077
		c-0.405,0.217-1.59,0.859-1.59,0.859l-0.032,0.036l-0.167-0.02l-0.16-0.195c0.526-0.267,1.189-0.605,1.393-0.709L274.726,11.077z
		 M272.313,10.948l1.57,0.084c-0.314,0.16-0.805,0.409-1.2,0.61l-0.37-0.459V10.948z M272.313,12.303l1.66,1.575l-0.909,1.06
		l-0.751-0.011V12.303z M272.313,15.213l0.283-0.008c0.031,0,0.065,0,0.098,0.001l0.134,0.006l-0.288,0.339l-0.227,0.054V15.213z
		 M271.774,10.92l0.106,0.005v0.908l-0.106-0.015V10.92z M271.774,12.22l0.106,0.011v2.69l-0.106-0.002V12.22z M271.774,15.23
		l0.106-0.003v0.652l-0.106-0.005V15.23z M270.939,10.875l0.408,0.021v0.184c-0.345,0.139-1.319,0.54-1.664,0.683h-0.535
		C269.668,11.504,270.584,11.051,270.939,10.875z M270.987,15.255l0.36-0.012v0.605l-1.799,0.028
		C270.032,15.668,270.69,15.383,270.987,15.255z M269.176,15.885l-0.051,0.002l-0.25,0.003c-0.021-0.015-0.044-0.029-0.064-0.045
		c0.148-0.063,0.906-0.387,1.32-0.565l0.471-0.013C270.142,15.464,269.492,15.748,269.176,15.885z M269.363,12.229l0.029-0.215
		l1.955,0.17v2.093L269.363,12.229z M271.274,11.763h-1.215c0.354-0.146,0.947-0.389,1.288-0.527v0.535L271.274,11.763z
		 M268.802,10.894l1.829-0.026c-0.562,0.277-1.506,0.745-1.808,0.895h-0.021V10.894z M268.802,12.459l1.877,2.16v0.334l-1.877,0.071
		V12.459z M268.802,15.319l0.938-0.027c-0.301,0.126-0.677,0.289-0.938,0.399V15.319z M268.372,10.9v0.614
		c-0.103-0.194-0.232-0.438-0.323-0.609L268.372,10.9z M267.942,11.011c0.106,0.199,0.283,0.533,0.399,0.752h-0.399V11.011z
		 M267.942,12.026l0.43-0.004v3.018l-0.43,0.017V12.026z M267.512,10.911v0.853h-0.357l-1.363,0.039
		c0.387-0.203,1.253-0.654,1.704-0.891H267.512z M267.209,15.431l0.303-0.036v0.52l-1.18,0.022
		C266.621,15.769,267.003,15.549,267.209,15.431z M266.036,15.942l-0.494,0.008c0.182-0.128,0.446-0.313,0.552-0.388l0.754-0.09
		C266.559,15.641,266.215,15.839,266.036,15.942z M267.512,12.031v2.399l-2.09-2.178v-0.202l0.047-0.002L267.512,12.031z
		 M265.146,10.977l0.396-0.039l1.025-0.015c-0.438,0.226-1.04,0.535-1.421,0.73V10.977z M265.146,11.815
		c0.501-0.257,1.328-0.682,1.742-0.895l0.289-0.003c-0.487,0.254-1.403,0.731-1.713,0.894l-0.318,0.008V11.815z M265.146,12.484
		l2.236,2.3l-0.042,0.295l-0.438,0.019l-1.756,0.23V12.484z M265.146,15.676l0.646-0.077l-0.509,0.356l-0.065,0.001l-0.072,0.009
		V15.676z M264.718,11.018v0.694c-0.061-0.101-0.153-0.252-0.253-0.424c0.069-0.076,0.162-0.176,0.251-0.271H264.718z M264.5,11.038
		c-0.035,0.039-0.07,0.079-0.113,0.123c-0.023-0.038-0.042-0.072-0.063-0.105L264.5,11.038z M264.071,11.078l0.095-0.008
		c0.042,0.071,0.084,0.14,0.12,0.199c-0.074,0.08-0.145,0.158-0.215,0.231V11.078z M264.071,11.712
		c0.093-0.1,0.193-0.208,0.29-0.315c0.091,0.151,0.188,0.315,0.262,0.437l-0.552,0.017V11.712z M264.071,12.104l0.646-0.024v3.304
		l-0.446,0.06l-0.2-0.408V12.104z M264.071,15.802l0.646-0.076v0.289l-0.646,0.072V15.802z M263.643,11.12v0.743l-0.285,0.006
		l-1.2,0.057c0.275-0.171,0.881-0.543,1.271-0.786L263.643,11.12z M263.643,12.119v2.295l-1.924-2.09l-0.037-0.129L263.643,12.119z
		 M263.105,11.172c-0.375,0.23-0.911,0.562-1.246,0.767l-0.114,0.006c0.353-0.229,0.889-0.575,1.167-0.755L263.105,11.172z
		 M261.313,11.342l1.289-0.124c-0.388,0.25-0.928,0.598-1.145,0.738l-0.145,0.006V11.342z M260.883,11.383v0.552
		c-0.07-0.07-0.182-0.177-0.293-0.287c0.064-0.077,0.148-0.169,0.229-0.258L260.883,11.383z M260.734,11.991l-0.431,0.019
		c-0.013,0-0.026,0-0.039,0c0.052-0.057,0.118-0.132,0.229-0.256C260.608,11.867,260.675,11.933,260.734,11.991z M260.608,11.41
		c-0.035,0.038-0.073,0.082-0.124,0.139c-0.045-0.046-0.083-0.082-0.116-0.116L260.608,11.41z M260.166,11.452l0.014-0.001
		c0.073,0.07,0.148,0.145,0.211,0.204c-0.074,0.083-0.154,0.174-0.225,0.25V11.452z M260.166,12.255l0.717-0.026v3.626l-0.717-0.738
		V12.255z M260.166,15.586l0.455,0.482l-0.406,0.098l-0.049-0.051V15.586z M259.738,11.494v0.046
		c-0.123,0.113-0.393,0.357-0.572,0.523l-0.502,0.023l-0.59,0.078c0.442-0.209,0.997-0.471,1.356-0.639L259.738,11.494z
		 M259.391,12.051c0.092-0.085,0.229-0.211,0.348-0.317v0.304L259.391,12.051z M259.738,12.285v2.389l-1.911-1.968v-0.202
		L259.738,12.285z M257.587,11.708l1.416-0.142c-0.505,0.239-1.096,0.519-1.399,0.662l-0.017,0.002V11.708z M257.587,12.953
		l0.168,0.064l1.983,2.109v0.541l-2.151-2.238V12.953z M257.587,13.878l2.118,2.411l-2.118,0.504V13.878z M257.158,12.051v0.037
		c-0.002-0.004-0.007-0.006-0.011-0.009L257.158,12.051z M257.099,12.229c0.021,0.018,0.041,0.035,0.06,0.054v0.005l-0.08,0.012
		L257.099,12.229z M256.085,12.706l0.068-0.012l0.358-0.041l0.646,0.735v3.38l-1.073-1.194V12.706z M255.655,11.97v0.519
		l-1.343,0.181c0.369-0.219,0.871-0.52,1.085-0.646L255.655,11.97z M253.72,14.334v-0.747l1.936,2.094v0.895L253.72,14.334z
		 M255.655,17.241v0.017l-1.936,0.601v-2.956L255.655,17.241z M253.84,13.08l1.815-0.302v2.319L253.84,13.08z M254.975,12.105
		c-0.351,0.213-0.813,0.487-1.021,0.611l-0.628,0.085l-0.304,0.054c-0.036-0.072-0.099-0.203-0.159-0.326L254.975,12.105z
		 M251.963,16.102v-2.694l0.323-0.067l0.123-0.021l0.881,1.063v3.187L251.963,16.102z M253.119,18.045l-1.074,0.333l-0.082-0.094
		v-1.549L253.119,18.045z M252.789,13.256l0.501-0.083v0.664L252.789,13.256z M252.683,12.565l0.035-0.007
		c0.038,0.082,0.103,0.217,0.158,0.323l-0.472,0.085C252.506,12.82,252.62,12.655,252.683,12.565z M252.215,12.658l0.266-0.053
		c-0.103,0.146-0.211,0.303-0.274,0.396l-0.17,0.03c-0.134-0.056-0.356-0.146-0.543-0.224L252.215,12.658z M251.239,12.859
		c0.122,0.05,0.336,0.139,0.535,0.22l-1.534,0.272c0.276-0.161,0.577-0.337,0.754-0.44L251.239,12.859z M249.91,13.83l1.624-0.336
		v2.132L249.91,13.83z M251.534,16.248v1.538l-1.863-2.149v-1.496L251.534,16.248z M248.919,13.34l1.638-0.338l-0.727,0.424
		l-0.911,0.161V13.34z M249.242,13.97v1.172l-0.861-0.995L249.242,13.97z M247.808,14.274l0.169-0.044l0.047-0.008l1.219,1.447
		v3.149l-1.435-1.686V14.274z M247.808,17.776l1.339,1.616l-1.339,0.498V17.776z M249.601,27.879l-1.04,0.014l-0.86,0.011v-5.161
		h0.049v-2.102l0.134-0.306l1.454-0.53l0.131,0.19l0.048,2.102h0.085V27.879z M249.671,16.182l1.863,2.219v0.135l-0.466,0.146
		l-1.397,0.517V16.182z M251.797,27.851l-2.066,0.027v-5.781v-0.105v-1.996l0.167-0.382l-0.002-0.01l1.674-0.606l0.145,0.21
		l0.048,2.103h0.035V27.851z M253.601,27.827l-1.638,0.021V21.31h0.013v-2.103l0.168-0.382l-0.009-0.033l0.402-0.148l0.736-0.18
		l0.183,0.265l0.047,2.104h0.098V27.827z M255.975,27.801l-1.97,0.021l-0.298,0.004v-6.993h0.013v-2.104l0.166-0.382l-0.007-0.032
		l1.13-0.278l0.832-0.195l0.05,0.076l0.049,2.102h0.035V27.801z M256.085,17.073v-0.928l0.762,0.825l-0.705,0.169L256.085,17.073z
		 M257.455,27.783l-1.31,0.016v-7.78h0.008v-2.102l0.074-0.167l1.044-0.244l0.102,0.147l0.049,2.103h0.033V27.783z M259.977,27.756
		l-2.39,0.025v-8.025h0.049v-2.103l0.113-0.26l0.626-0.146l1.513-0.24l0.017,0.024l0.048,2.104h0.024V27.756z M261.244,27.75h-0.646
		l-0.407,0.004v-8.679h-0.025v-2.044l0.034-0.073l0.883-0.141l0.064,0.095l0.046,2.104h0.051V27.75z M261.313,12.824l2.224,2.714
		l-1.543,0.203l-0.681,0.164V12.824z M263.643,15.854v0.281l-0.93,0.106l0.07-0.286L263.643,15.854z M263.93,27.75h-2.543v-8.734
		h0.023v-2.104l0.069-0.158l0.515-0.08l1.831-0.19l0.069,1.529l0.035,0.003V27.75z M264.908,27.75h-0.847v-9.721l0.071,0.007
		l0.046-1.59l0.608-0.063l0.061,1.414l0.061,0.006V27.75z M267.823,27.765l-0.992-0.015h-1.777v-9.934l0.033,0.003l0.043-1.472
		l1.343-0.141h1.225l0.064,1.47l0.062,0.007V27.765z M267.942,15.346l0.43-0.014v0.566l-0.43,0.009V15.346z M268.61,27.775
		l-0.632-0.009V17.698l0.023,0.002l0.041-1.493h0.438l0.072,1.849l0.058,0.006V27.775z M271.586,27.821l-2.809-0.042v-9.697
		l0.013,0.002l0.045-1.877h1.149l1.438,0.054l0.065,1.699l0.098,0.011V27.821z M272.183,27.832l-0.483-0.009v-9.84l0.029,0.004
		l0.039-1.714l0.3,0.014l0.065,1.793l0.05,0.004V27.832z M275.349,27.909l-1.425-0.054l-1.625-0.023v-9.733l0.073,0.009l0.044-1.807
		l0.397,0.015l2.431,0.304l0.064,1.722l0.04,0.006V27.909z M275.541,27.915l-0.078-0.002v-9.554l0.078,0.01V27.915z M278.907,28.038
		l-0.109-0.003l-3.145-0.116v-9.56l0.088,0.01l0.04-1.683l0.472,0.06L278.8,17.2l0.07,1.788l0.037,0.004V28.038z M279.013,11.307
		l0.5,0.025l1.899,0.431l0.173,0.03c-0.59,0.249-1.953,0.825-2.387,1.006l-0.186-0.039V11.307z M282.384,28.099l-3.277-0.058v-9.025
		h0.002l0.041-1.752l0.902,0.163l2.193,0.547l0.062,1.682l0.076,0.01V28.099z M285.679,28.163l-0.755-0.019l-2.428-0.043v-8.424
		l0.051,0.007l0.039-1.623l0.617,0.152l2.336,0.676l0.064,1.722l0.075,0.01V28.163z M288.855,28.242l-3.063-0.077l0.002-7.531
		l0.051,0.007l0.04-1.65l0.292,0.085l2.514,1.057l0.066,1.722l0.099,0.013V28.242z M289.143,28.249l-0.175-0.004v-6.366l0.03,0.004
		l0.024-1.148l0.044,1.145l0.076,0.009V28.249z M292.031,28.375l-1.375-0.088l-1.4-0.035v-6.353l0.052,0.007l0.036-1.481
		l2.553,1.278l0.061,1.585l0.074,0.009V28.375z M292.496,28.404l-0.353-0.021v-5.071l0.053,0.007l0.036-1.448l0.1,0.05l0.056,1.514
		l0.108,0.013V28.404z M292.505,19.544l0.033-0.037l0.414,0.178l-0.447,0.47V19.544z M293.386,19.872l1.129,0.486
		c-0.349,0.094-1.415,0.371-1.903,0.5v-0.039h-0.004L293.386,19.872z M294.979,28.562l-2.368-0.15v-4.953l0.015,0.003l0.034-1.383
		l2.17,1.029l0.064,1.711l0.085,0.01V28.562z M295.612,28.6l-0.442-0.026l-0.094-0.006v-3.729l0.058,0.009l0.04-1.575l0.304,0.185
		l0.062,1.648l0.072,0.009V28.6z M295.639,22.698c0.472-0.116,1.572-0.386,2.161-0.531v0.344c-0.553,0.104-1.677,0.322-2.161,0.415
		V22.698z M297.8,22.655v0.812c-0.444-0.064-1.549-0.225-1.944-0.282l-0.199-0.116C296.075,22.986,297.318,22.748,297.8,22.655z
		 M297.8,23.611v0.714l-0.407-0.232l-1.213-0.717L297.8,23.611z M298,28.738l-2.291-0.132v-3.483l0.071,0.01l0.035-1.472
		l1.826,1.113l0.194,0.122l0.069,1.763L298,26.67V28.738z M298.858,28.787l-0.763-0.044v-2.062l0.049,0.006l0.037-1.575l0.498,0.309
		l0.061,1.62l0.118,0.016V28.787z M300.95,28.908l-1.995-0.116v-1.726l0.023,0.002l0.035-1.439l0.526,0.328l1.41,1.057V28.908z
		 M301.822,28.96l-0.775-0.046v-1.827l0.775,0.583V28.96z M303.496,29.044l-1.519-0.077l-0.06-0.003v-1.221l1.578,1.243V29.044z
		 M303.496,28.31l-1.295-1.015l1.295,0.302V28.31z M303.496,27.45c-0.32-0.076-1.058-0.248-1.428-0.334v-0.34
		c0.327-0.028,0.996-0.088,1.428-0.127V27.45z M303.496,26.506c-0.365,0.032-1.031,0.091-1.428,0.127v-0.847
		c0.396,0.101,1.07,0.272,1.428,0.364V26.506z M303.496,26.003c-0.43-0.111-1.117-0.285-1.428-0.364v-0.115
		c0.311,0.05,1.029,0.164,1.428,0.228V26.003z M303.496,25.606l-1.428-0.229V24.64l1.428,0.925V25.606z M303.496,24.883
		l-0.049-0.036l-0.997-0.645l1.046-1.479V24.883z M303.496,21.444v0.09l-0.833-0.49c0.381-0.005,1.048-0.009,1.496-0.013
		l-0.344,0.413H303.496z M304.285,28.931l-0.248-0.192v-0.268l0.248-0.014V28.931z M304.285,28.313l-0.248,0.014v-0.923
		c0.072,0.016,0.155,0.035,0.248,0.057V28.313z M304.285,27.313l-0.248-0.059v-1.302l0.248,0.182V27.313z M304.285,25.442
		l-0.248-0.177v-2.84l0.248,0.149V25.442z M304.285,21.999l-0.193-0.116l0.193-0.273V21.999z M304.285,20.878l-0.006,0.009
		c-0.396,0.004-1.312,0.01-1.857,0.014l-0.3-0.178l-0.054-0.022v-0.115c0.469,0.012,1.754,0.048,2.217,0.062V20.878z
		 M304.365,19.913h-0.08v0.589c-0.572-0.017-1.79-0.05-2.217-0.06v-0.238c0.655-0.133,2.198-0.443,2.45-0.496
		C304.475,19.769,304.413,19.851,304.365,19.913z M304.672,19.913h-0.129c0.033-0.044,0.078-0.101,0.119-0.158l0.097,0.049
		L304.672,19.913z M306.221,29.181l-1.394-0.071v-0.537l1.394-0.185V29.181z M306.221,28.243c-0.312,0.041-1.025,0.136-1.394,0.184
		v-0.028c0.383-0.051,1.09-0.143,1.394-0.184V28.243z M306.221,27.958c-0.289,0.022-0.977,0.077-1.394,0.111v-0.48
		c0.533,0.124,1.129,0.264,1.394,0.326V27.958z M306.221,27.769l-1.394-0.328v-0.903l1.394,1.036V27.769z M305.151,23.068
		l0.991,0.556l-0.977,1.652L305.151,23.068z M306.221,26.822l-0.053-0.041l-0.829-0.589l0.882-1.685V26.822z M306.221,23.126v0.021
		l-0.445-0.272l-0.628-0.368v-0.022c0.306,0.03,1.129,0.107,1.585,0.15l-0.292,0.491H306.221z M307.279,31.298l-0.577-0.456
		l2.081,0.169l1.179,0.026l-0.941,1.868L307.279,31.298z M315.863,37.956l-0.77,0.771l-0.057,0.304l-1.022-1.101l-1.828-2.151
		l-2.112-1.898l-0.613-0.567l1.107-2.204l0.867,0.728l3.329,3.333l1.099,0.829V37.956z M315.863,34.7l-0.704-0.176l-1.438-1.402
		l0.847-1.963l1.295,0.071V34.7z M315.863,29.552l-0.587-0.029l0.343-0.793l0.244,0.085V29.552z M315.863,28.41l-0.092-0.035
		l0.092-0.212V28.41z"/>
	<rect x="167.801" y="42.788" fill="#28365C" width="40.01" height="1.212"/>
	<rect x="310.675" y="40.062" fill="#28365C" width="91.858" height="1.723"/>
	<rect x="331.741" y="34.759" fill="#28365C" width="5.015" height="5.304"/>
	<rect x="337.974" y="33.183" fill="#28365C" width="5.015" height="7.098"/>
	<g>
		<polygon fill="#28365C" points="353.091,32.609 353.091,28.738 347.362,28.738 347.36,26.013 344.064,26.013 344.064,40.494 
			347.362,40.494 347.362,32.609 		"/>
		<rect x="348.649" y="34.042" fill="#28365C" width="13.185" height="6.596"/>
	</g>
	<rect x="353.789" y="21.508" fill="#28365C" width="24.744" height="11.687"/>
	<rect x="362.832" y="34.074" fill="#28365C" width="25.999" height="5.028"/>
	<polygon fill="#28365C" points="172.386,34.186 172.386,34.951 202.099,33.518 203.531,32.369 	"/>
	<polyline fill="#28365C" points="173.247,31.797 173.282,31.856 174.775,34.376 175.061,34.376 173.82,31.845 	"/>
	<polyline fill="#28365C" points="175.586,31.652 175.623,31.714 177.115,34.233 177.403,34.233 176.16,31.699 	"/>
	<polyline fill="#28365C" points="177.928,31.509 177.964,31.57 179.457,34.09 179.744,34.09 178.501,31.557 	"/>
	<polyline fill="#28365C" points="180.268,31.366 180.304,31.427 181.796,33.947 182.083,33.947 180.842,31.412 	"/>
	<polyline fill="#28365C" points="182.609,31.221 182.646,31.284 184.137,33.803 184.424,33.803 183.182,31.27 	"/>
	<polyline fill="#28365C" points="184.949,31.078 184.985,31.141 186.479,33.66 186.765,33.66 185.523,31.127 	"/>
	<polyline fill="#28365C" points="187.29,30.936 187.326,30.997 188.819,33.517 189.106,33.517 187.864,30.982 	"/>
	<polyline fill="#28365C" points="189.631,30.792 189.667,30.854 191.16,33.374 191.446,33.374 190.203,30.84 	"/>
	<polyline fill="#28365C" points="191.972,30.648 192.008,30.71 193.501,33.229 193.788,33.229 192.545,30.696 	"/>
	<polyline fill="#28365C" points="194.312,30.505 194.35,30.566 195.841,33.087 196.127,33.087 194.886,30.554 	"/>
	<polyline fill="#28365C" points="196.653,30.361 196.69,30.423 198.182,32.943 198.468,32.943 197.227,30.409 	"/>
	<polyline fill="#28365C" points="198.994,30.219 199.03,30.279 200.522,32.799 200.809,32.799 199.567,30.267 	"/>
	<polyline fill="#28365C" points="201.334,30.076 201.371,30.137 202.863,32.656 203.149,32.656 201.907,30.122 	"/>
	<polygon fill="#28365C" points="201.573,29.693 199.041,33.038 199.375,33.087 201.907,29.836 	"/>
	<polygon fill="#28365C" points="198.133,29.836 195.601,33.183 195.936,33.229 198.467,29.979 	"/>
	<polygon fill="#28365C" points="194.693,29.979 192.162,33.325 192.496,33.374 195.028,30.122 	"/>
	<polygon fill="#28365C" points="191.253,30.122 188.723,33.468 189.058,33.517 191.589,30.267 	"/>
	<polygon fill="#28365C" points="187.815,30.267 185.284,33.613 185.618,33.66 188.149,30.409 	"/>
	<polygon fill="#28365C" points="184.376,30.409 181.845,33.756 182.178,33.803 184.71,30.554 	"/>
	<polygon fill="#28365C" points="180.937,30.554 178.405,33.899 178.738,33.947 181.272,30.696 	"/>
	<polygon fill="#28365C" points="177.497,30.696 174.965,34.042 175.3,34.09 177.832,30.84 	"/>
	<polygon fill="#28365C" points="174.057,30.84 171.527,34.186 171.861,34.233 174.392,30.982 	"/>
	<polygon fill="#28365C" points="198.611,42.43 191.732,42.43 191.875,38.271 198.611,37.269 	"/>
	<rect x="187.003" y="39.921" fill="#28365C" width="3.941" height="2.365"/>
	<rect x="182.094" y="39.419" fill="#28365C" width="3.942" height="2.867"/>
	<g>
		<polygon fill="#28365C" points="62.016,41.114 64.621,40.062 64.621,34.657 62.02,34.657 		"/>
		<polygon fill="#28365C" points="71.084,35.476 65.214,35.476 65.214,37.08 65.161,39.643 69.428,38.237 69.489,37.556 
			71.084,37.556 		"/>
	</g>
	<path fill="#28365C" d="M31.671,41.078c0,0-1.935-2.58-0.859-3.656c0,0-0.215-2.15-0.86-2.15c-0.644,0-2.148-2.796-2.148-2.796
		l1.504-3.226c0,0-0.215-3.871-1.29-3.871c-1.075,0-2.364,0.861-4.514,1.505v2.582l1.289,2.149l-2.578,1.936l-2.58-1.075
		c0,0-1.074-1.073-2.579-2.149l-2.149-0.217c0,0-2.794,1.723-4.729,0.217c0,0-0.003-0.002-0.009-0.006
		c-0.013-0.011-0.022-0.021-0.036-0.029c-0.106-0.082-0.488-0.379-1.89-1.472c-1.086-0.844-0.43-1.936-2.793-2.149
		c-0.051-0.006-0.088-0.009-0.134-0.013c-0.044-0.004-0.096-0.009-0.153-0.014c-0.331-0.03-0.535-0.05-0.646-0.06
		c-0.129-0.011-0.165-0.016,0,0c0.156,0.014,0.431,0.04,0.646,0.06c0.047,0.004,0.1,0.01,0.153,0.014
		c0.079,0.007,0.134,0.013,0.134,0.013s0,0-1.291-1.506l-1.719-2.581c0,0,0-1.29-0.646-3.226l-1.289,2.366l-0.743,0.93V44h34.257
		L31.671,41.078z"/>
	<path fill="#28365C" d="M-3.365,28.819c0,0,0.018-0.132-0.006-0.344C-3.837,28.961-4.01,29.225-3.365,28.819z"/>
	<path fill="#28365C" d="M9.594,29.872c-0.064-0.05-0.122-0.095-0.169-0.131C9.467,29.773,9.521,29.816,9.594,29.872z"/>
	<path fill="#28365C" d="M9.329,29.666C9.316,29.656,9.317,29.657,9.329,29.666L9.329,29.666z"/>
	<path fill="#28365C" d="M10.177,30.326c0,0-0.027-0.021-0.068-0.053c0.009,0.006,0.015,0.01,0.023,0.018
		c0.019,0.016,0.031,0.024,0.036,0.029C10.171,30.322,10.173,30.324,10.177,30.326z"/>
	<path fill="#28365C" d="M9.425,29.741c-0.051-0.04-0.083-0.065-0.096-0.075C9.346,29.68,9.381,29.707,9.425,29.741z"/>
	<path fill="#28365C" d="M4.515,26.584C4.351,26.568,4.386,26.573,4.515,26.584L4.515,26.584z"/>
	<path fill="#28365C" d="M5.314,26.657c-0.054-0.004-0.106-0.01-0.153-0.014C5.218,26.648,5.27,26.653,5.314,26.657z"/>
	<path fill="#28365C" d="M10.109,30.273c-0.224-0.174-0.394-0.307-0.515-0.401C9.777,30.015,10,30.189,10.109,30.273z"/>
</g>
<rect x="-0.239" y="42" fill="#28365C" width="401.237" height="18"/>
</svg>
