<?xml version="1.0" encoding="utf-8"?>
<!-- Generated by IcoMoon.io -->
<!DOCTYPE svg PUBLIC "-//W3C//DTD SVG 1.1//EN" "http://www.w3.org/Graphics/SVG/1.1/DTD/svg11.dtd">
<svg version="1.1" xmlns="http://www.w3.org/2000/svg" xmlns:xlink="http://www.w3.org/1999/xlink" width="128" height="128" viewBox="0 0 128 128">
<g>
</g>
	<path d="M64 0c35.346 0 64 28.654 64 64s-28.654 64-64 64-64-28.654-64-64 28.654-64 64-64zM64 116c28.719 0 52-23.281 52-52s-23.281-52-52-52-52 23.281-52 52 23.281 52 52 52zM26.343 58.343l32-32c3.124-3.124 8.189-3.124 11.314 0s3.124 8.19 0 11.314l-18.343 18.343h44.686c4.418 0 8 3.582 8 8s-3.582 8-8 8h-44.686l18.343 18.343c3.124 3.124 3.124 8.19 0 11.314-1.562 1.562-3.61 2.343-5.657 2.343s-4.095-0.781-5.657-2.343l-32-32c-3.124-3.124-3.124-8.19 0-11.314z" fill="#5473c5" />
</svg>
