<?xml version="1.0" encoding="utf-8"?>
<!-- Generator: Adobe Illustrator 16.2.1, SVG Export Plug-In . SVG Version: 6.00 Build 0)  -->
<!DOCTYPE svg PUBLIC "-//W3C//DTD SVG 1.1//EN" "http://www.w3.org/Graphics/SVG/1.1/DTD/svg11.dtd">
<svg version="1.1" id="Layer_1" xmlns="http://www.w3.org/2000/svg" xmlns:xlink="http://www.w3.org/1999/xlink" x="0px" y="0px"
	 width="300px" height="200px" viewBox="0 0 300 200" enable-background="new 0 0 300 200" xml:space="preserve">
<g id="Layer_1_1_">
	<g>
		<g>
			<path fill="#27355D" d="M245.018,195.188c-0.353-0.275-0.709-0.549-1.076-0.807c-41.109-28.814-84.115-54.391-129.714-75.488
				c-10.174-4.707-20.532-8.994-31.455-11.72c-0.882-0.218-1.035-0.676-1.025-1.476c0.034-3.34,0.083-6.688-0.02-10.023
				c-0.042-1.352,0.469-2.043,1.604-2.679c9.187-5.137,18.144-10.638,26.323-17.305c5.514-4.494,10.624-9.378,14.208-15.629
				c2.617-4.564,3.781-9.42,2.609-14.66c-1.945-8.701-7.412-14.94-14.544-19.71c-4.076-2.726-8.612-4.797-13.046-6.95
				c-9.98-4.842-20.269-8.844-31.266-10.73c-2.643-0.454-5.32-0.712-7.98-1.059H47.062c-0.583,0.099-1.165,0.225-1.752,0.292
				c-3.817,0.432-7.562,1.279-10.549,3.786c-5.806,4.872-7.089,8.615-4.081,14.483c0.272,0.532,0.552,1.062,0.861,1.573
				c3.362,5.544,8.058,9.854,12.954,13.978c0.163,0.137,0.395,0.191,0.595,0.284c-1.823-2.477-3.894-4.686-5.696-7.095
				c-2.292-3.064-4.596-6.161-6.471-9.482c-1.848-3.271-0.753-6.408,2.516-8.285c1.363-0.782,2.887-1.415,4.417-1.753
				c9.204-2.043,18.424-1.712,27.607,0.153c11.988,2.435,23.297,6.861,34.274,12.135c6.444,3.096,11.698,7.757,15.875,13.548
				c3.654,5.063,3.886,10.398,0.832,15.873c-2.391,4.286-5.695,7.796-9.311,11.041c-5.923,5.313-12.474,9.771-19.222,13.949
				c-2.489,1.539-5.021,3.01-7.752,4.644c-0.269-0.882-0.559-1.514-0.643-2.172c-0.177-1.382-0.322-2.777-0.346-4.171
				c-0.202-11.617-0.417-23.236-0.534-34.854c-0.065-6.456-1.86-12.484-4.294-18.352c-0.595-1.432-1.603-2.761-2.665-3.915
				c-1.164-1.265-3.271-1.288-4.472-0.286c0.299,0.326,0.548,0.721,0.901,0.963c1.673,1.148,2.287,2.841,2.435,4.738
				c0.596,7.65,1.172,15.302,1.689,22.958c0.016,0.232,0.168,6.316,0.17,6.409c0.127,10.922,0.255,21.843,0.348,32.766
				c0.002,0.356-0.288,0.896-0.59,1.044c-3.473,1.71-7.003,3.3-10.457,5.044c-3.597,1.815-7.256,3.556-10.642,5.716
				c-2.578,1.646-2.378,3.812,0.298,5.354c1.704,0.979,3.604,1.824,5.519,2.197c4.833,0.939,9.718,1.618,14.597,2.303
				c1.081,0.149,1.321,0.563,1.46,1.574c0.838,6.116,1.623,12.252,2.731,18.323c0.77,4.211,2.009,8.354,4.637,11.879
				c1.136,1.523,2.573,2.865,4.615,2.548c1.996-0.312,2.775-2.094,3.503-3.765c0.036-0.081,0.005-0.19,0.005-0.289
				c-1.019-1.462-1.87-0.063-2.955,0.252c-3.359-9.188-5.379-18.562-5.036-28.627c2.653,0.701,5.137,1.245,7.548,2.015
				c13.137,4.19,25.681,9.838,38.154,15.646c21.972,10.229,43.473,21.387,64.686,33.099c17.457,9.635,34.75,19.551,51.38,30.582
				c0.266,0.178,0.555,0.314,0.981,0.557C245.076,195.332,245.07,195.23,245.018,195.188z M74.6,105.54
				c-3.363-0.422-6.797-0.427-10.278-2.328c3.613-1.687,6.832-3.188,10.278-4.798V105.54z"/>
			<path fill="#27355D" d="M170.521,103.873c0.154-2.003,0.269-3.967,0.467-5.926c1.082-10.659,2.174-21.319,3.305-31.973
				c0.131-1.228,0.532-2.429,0.816-3.641c0.258-1.078,0.761-1.729,2.057-1.672c1.284,0.058,2.268,0.543,2.412,1.765
				c0.238,2.065,0.393,4.175,0.246,6.244c-0.487,6.856-1.127,13.703-1.701,20.555c-0.232,2.779-0.457,5.561-0.678,8.343
				c-0.03,0.398-0.006,0.801-0.006,1.201c0.158,0.029,0.312,0.062,0.471,0.093c0.186-0.555,0.382-1.107,0.552-1.669
				c1.802-5.957,3.536-11.934,5.435-17.858c0.511-1.589,1.396-3.095,2.309-4.509c1.715-2.649,4.669-2.761,6.725-0.327
				c2.016,2.383,2.68,5.328,3.131,8.286c0.439,2.901,0.926,5.849,0.861,8.764c-0.143,6.289,1.376,12.253,2.99,18.217
				c0.664,2.448,1.531,4.846,2.396,7.234c0.42,1.166,0.982,2.291,1.577,3.385c2.789,5.143,5.14,5.653,9.765,2.156
				c0.754-0.566,1.48-1.168,2.461-1.943c-0.147,0.51-0.15,0.803-0.295,0.976c-1.572,1.851-2.957,3.933-4.803,5.462
				c-3.437,2.848-8.396,2.166-11.257-1.247c-3.059-3.655-4.485-8.071-5.705-12.556c-0.774-2.875-1.376-5.793-2.101-8.896
				c-2.256,0.745-4.426,1.646-6.678,2.157c-2.116,0.479-3.072,1.588-3.615,3.668c-0.879,3.365-2.11,6.646-3.271,9.932
				c-0.307,0.871-0.726,1.819-1.375,2.43c-1.799,1.686-3.729,1.502-5.318-0.397c-1.715-2.052-1.896-4.554-1.852-7.073
				c0.028-1.537,0.186-3.072,0.297-4.779c-7.652-0.598-9.807-6.072-11.082-12.617c-0.42,0.455-0.716,0.732-0.965,1.048
				c-3.482,4.437-7.023,8.813-11.417,12.419c-2.401,1.971-5.023,3.264-8.221,2.854c-0.651-0.082-1.375-0.293-1.881-0.685
				c-3.047-2.358-4.086-5.687-4.177-9.356c-0.15-5.996,1.071-11.803,2.794-17.497c1.009-3.334,2.362-6.564,3.372-9.897
				c0.723-2.385,2.735-3.468,4.421-4.877c0.329-0.275,1.255-0.107,1.755,0.148c0.887,0.456,1.164,1.326,0.874,2.307
				c-0.684,2.291-1.479,4.554-2.049,6.872c-1.426,5.798-2.888,11.595-4.045,17.45c-0.457,2.309-0.224,4.772-0.14,7.162
				c0.023,0.683,0.625,1.345,1.171,2.435c3-3.188,5.808-6.009,8.425-8.99c4.586-5.223,8.422-10.993,11.995-16.945
				c1.229-2.052,3.35-2.133,4.907-0.44c1.228,1.333,1.353,2.675,1.065,4.346c-0.608,3.533-1.086,7.09-1.543,10.645
				C165.068,99.214,167.771,103.085,170.521,103.873z M189.387,84.22c-0.175-0.016-0.352-0.03-0.525-0.046
				c-1.691,6.327-3.385,12.653-5.146,19.239c2.767-0.248,5.31-0.472,7.914-0.704C190.866,96.428,190.126,90.324,189.387,84.22z"/>
			<path fill="#27355D" d="M255.514,76.244c-0.832-0.093-1.424-0.303-1.949-0.193c-2.375,0.496-4.811,0.863-7.069,1.694
				s-2.368,1.775-0.874,3.652c4.04,5.08,9,9.194,14.197,12.981c4.519,3.291,5.537,7.736,4.668,12.758
				c-0.286,1.669-1.445,3.48-2.738,4.63c-3.143,2.785-7.008,4.176-11.243,4.127c-2.366-0.026-4.604-0.931-6.087-2.772
				c-1.066-1.328-1.572-3.104-2.509-5.058c-6.513,0.164-10.759-3.791-13.457-10.062c-1.718,2.093-3.229,4.101-4.914,5.96
				c-2.759,3.057-5.731,5.939-9.912,6.873c-2.774,0.619-5.649,0.706-8.378-0.441c-2.621-1.11-3.996-3.018-4.146-5.984
				c-0.252-5.019,1.055-9.571,3.629-13.794c2.734-4.489,6.844-6.546,12.006-7.424c3.459-0.586,6.349,0.859,9.699,1.266
				c0.056-0.652,0.106-1.271,0.157-1.89c0.166-1.999,0.812-3.791,2.276-5.222c1.078-1.053,2.986-1.446,3.949-0.827
				c1.026,0.66,1.981,3.214,1.619,4.363c-1.151,3.641-1.209,7.387-0.795,11.11c0.521,4.67,3.207,7.791,7.652,9.203
				c4.932,1.572,10.001,1.521,15.083,0.796c0.246-0.034,0.488-0.107,0.726-0.185c0.076-0.027,0.137-0.121,0.432-0.402
				c-2.145-1.94-4.223-3.917-6.4-5.771c-2.24-1.906-4.621-3.642-6.861-5.545c-2.855-2.427-4.939-5.461-6.375-8.908
				c-0.981-2.364-0.498-4.646,1.393-6.28c1.551-1.342,3.402-2.41,5.271-3.294c1.602-0.76,3.393-1.148,5.125-1.6
				c3.051-0.796,5.461,0.237,7.11,2.943C257.889,74.736,256.266,75.377,255.514,76.244z M224.652,88.865
				c-1.807,0.142-3.236,0.213-4.662,0.372c-7.254,0.813-11.926,5.636-12.395,11.673c-0.225,2.895,1.287,4.584,4.09,3.781
				c1.403-0.4,2.828-1.08,3.973-1.979C220.086,99.23,222.298,94.259,224.652,88.865z M258.355,104.184
				c-3.865,1.344-7.676,2.666-11.412,3.961c1.149,1.312,4.088,1.912,6.312,1.112C255.773,108.352,257.889,107.029,258.355,104.184z"
				/>
			<path fill="#27355D" d="M124.8,81.364c0.434,0.695,0.682,1.148,0.983,1.562c0.848,1.17,1.753,2.299,2.572,3.487
				c3.012,4.371,3.29,8.895,0.853,13.647c-3.171,6.188-7.496,11.092-14.492,12.864c-4.272,1.083-8.635,1.557-12.932-0.07
				c-4.195-1.59-5.852-4.17-6.008-8.627c-0.223-6.331,2.703-11.305,6.529-15.917c3.678-4.437,7.858-8.438,12.689-11.509
				c2.887-1.835,6.4-3.237,10.053-1.786c1.138,0.451,2.299,1.285,3.015,2.262c1.354,1.849,0.756,3.499-1.367,4.354
				C126.3,81.791,125.727,81.51,124.8,81.364z M107.829,92.984c-0.143-0.087-0.285-0.174-0.428-0.262
				c-0.564,0.641-1.331,1.193-1.659,1.938c-1.258,2.86-2.466,5.748-3.505,8.691c-0.543,1.541,0.526,3.33,2.204,3.688
				c1.526,0.327,3.253,0.64,4.697,0.245c4.19-1.145,8.181-2.871,11.545-5.727c5.426-4.605,4.156-13.301-2.349-16.306
				c-2.518-1.162-3.19-1.034-5.017,0.962c-0.304,0.33-0.588,0.679-0.912,0.989c-2.204,2.119-4.043,4.362-3.327,7.764
				c0.197,0.934-0.411,1.073-1.25,0.684C107.829,94.759,107.829,93.873,107.829,92.984z"/>
			<path fill="#27355D" d="M274.537,115.014c-1.418,1.031-2.596,0.729-3.803-0.145c-2.573-1.866-3.668-4.573-3.644-7.526
				c0.052-6.118,0.229-12.255,0.761-18.35c0.396-4.547,1.371-9.048,2.195-13.551c0.202-1.098,0.723-2.182,1.291-3.157
				c0.719-1.231,1.571-1.169,2.686-0.287c1.543,1.222,1.847,2.666,1.641,4.576c-0.854,7.929-1.697,15.863-2.229,23.816
				c-0.209,3.148,0.396,6.353,0.646,9.53C274.217,111.605,274.383,113.29,274.537,115.014z"/>
			<path fill="#27355D" d="M271.079,54.275c-0.263-2.454,0.831-4.647,2.776-6.602c1.703-1.708,3.379-1.634,5.156-0.74
				c2.387,1.198,4.243,3.135,4.721,5.79c0.631,3.514-0.567,6.496-3.74,8.421c-0.549,0.333-1.307,0.458-1.965,0.449
				C273.35,61.526,271.079,59.218,271.079,54.275z"/>
		</g>
	</g>
</g>
<g enable-background="new    ">
	<path fill="#27355D" d="M212.561,145.853c0.176,0,0.881-0.109,0.881,0.221c0,0.329-0.793,0.396-0.969,0.439
		c-2.002,0.396-3.344,1.276-3.696,1.276c-0.419,0-0.484-0.902-0.484-1.166c0-1.034,0.353-2.112,1.122-2.816
		c1.188-1.101,7.789-4.467,9.373-4.511c0.793-0.022,1.475,1.408,1.475,1.716c0,0.44-0.594,1.299-0.836,1.673
		c-3.938,6.271-4.687,8.229-4.73,8.867c-0.045,0.528,0.088,1.43,0.572,1.276c0.594-0.198,1.628-0.748,6.227-8.031
		c-0.242-1.387,1.805-4.027,2.486-3.785c0.968,0.33,0.527,3.059-5.083,10.408c-0.704,0.924-2.75,3.828-3.938,3.828
		c-0.88,0-2.53-1.386-2.486-3.036c0.021-0.88,0.374-2.772,4.555-9.682l-0.044-0.044c-1.98,0.946-4.005,1.914-5.698,3.389
		l0.043,0.044L212.561,145.853z"/>
	<path fill="#27355D" d="M229.611,151.222c-1.343,1.562-3.763,3.63-5.941,3.63c-1.605,0-2.354-1.43-2.398-2.882
		c-0.088-2.883,3.103-5.831,5.963-5.809c0.704,0,1.584,0.176,1.584,1.056c0,1.078-1.078,2.707-5.303,4.093l-0.043,0.484
		c-0.066,0.836,0.66,1.122,1.363,1.122c1.562,0,3.41-1.606,4.577-2.53L229.611,151.222z M226.883,147.679
		c0-0.153-0.11-0.286-0.264-0.242c-1.101,0.286-2.377,1.343-2.971,2.795C225.584,149.571,226.904,148.053,226.883,147.679z"/>
	<path fill="#27355D" d="M230.842,149.726c-0.77,1.21-1.693,1.782-2.641,2.729l-0.088-0.969c0.572-0.462,1.035-1.012,1.453-1.606
		c-0.463-0.044-0.595-0.22-0.595-0.682c0-1.584,2.244-3.169,2.772-3.169c0.221,0,0.396,0.177,0.396,0.374
		c0,0.221-0.066,0.419-0.154,0.616c2.068-0.286,3.278-0.55,3.498-0.286c0.33,0.419,0.484,0.771,0.528,1.167
		c0,0.682-0.418,1.012-0.925,1.43c-0.637,0.55-1.715,1.628-1.715,2.509c0,0.352,0.352,0.616,0.682,0.616
		c0.945,0,2.332-1.431,3.059-1.98l0.154,0.813c-0.837,0.946-3.367,3.389-4.621,3.389c-0.924,0-1.496-0.857-1.496-1.694
		c0-1.496,1.144-2.662,2.023-3.718l-0.043-0.045L230.842,149.726z"/>
	<path fill="#27355D" d="M243.713,143.652c-0.088,0.044-0.506,0.22-0.595,0.22c-0.241,0-0.198-0.374-0.176-0.506
		c0.044-0.638,0.483-0.836,1.013-1.144c0.726-0.419,3.212-1.893,3.828-1.893c0.572,0,1.012,1.188,1.012,1.519
		c0,0.638,0,0.571-3.454,6.446c-0.771,1.299-2.574,4.4-2.574,5.875c0,0.264,0.065,0.506,0.065,0.771
		c0,0.197-0.109,0.308-0.308,0.308c-0.11,0-0.353-0.132-0.462-0.198c-0.836-0.462-1.783-0.616-1.783-1.76
		c0-1.101,0.947-3.543,1.541-4.533c1.605-2.662,3.389-5.017,4.026-5.853l-0.044-0.044L243.713,143.652z"/>
	<path fill="#27355D" d="M255.658,141.145c0.946-0.99,1.364-0.881,2.662-0.881h5.303c-1.452,2.619-1.475,2.971-3.477,2.948
		l-3.74-0.044c-0.748,0.595-1.387,1.364-1.87,2.245c1.012-0.265,2.024-0.463,3.058-0.463c1.893,0,3.609,0.946,3.609,2.993
		c0,0.901-0.264,1.826-0.793,2.706c-1.342,2.244-4.355,4.07-8.779,4.07c-2.156,0-2.266-0.483-2.266-1.892
		c0-1.606,3.125-2.442,3.455-2.442c0.131,0,0.352,0.044,0.352,0.241c0,0.198-0.33,0.396-0.463,0.484l-1.342,0.924l0.045,0.045
		c5.236-0.572,8.185-2.861,8.185-4.071c0-0.594-1.078-0.836-1.519-0.836c-0.88,0-1.893,0.176-2.729,0.353
		c-0.836,0.153-1.518,0.374-1.781,0.374c-0.881,0-1.255-1.673-1.255-2.354c0-0.704,0.616-1.496,1.078-1.98L255.658,141.145z"/>
	<path fill="#27355D" d="M263.027,153.686c0-0.792,0.968-2.618,2.223-2.354c0.308,0.065,1.078,0.065,1.078,0.703
		c0,0.022-0.551,2.729-1.915,2.575C263.819,154.544,263.027,154.434,263.027,153.686z"/>
	<path fill="#27355D" d="M272.752,146.073c-0.154,0.021-0.616,0.109-0.748,0.109c-0.418,0-0.506-0.55-0.506-0.858
		c0-0.813,0.682-2.31,1.231-2.926c1.276-1.452,4.841-2.135,6.733-2.135c1.65,0,2.464,0.44,2.464,3.477c0,1.188,0,2.223-5.413,5.104
		c-1.869,0.99-3.74,2.024-5.391,3.323l0.045,0.044l8.559-1.496c-0.572,1.628-0.969,3.146-2.926,3.521
		c-3.434,0.638-5.985,0.748-6.558,0.308c-0.66-0.528-0.968-1.672-0.968-2.464c0-2.003,6.271-5.215,7.943-6.14
		c0.924-0.506,3.102-1.672,3.102-2.882c0-0.44-0.527-0.572-0.836-0.572c-1.826,0-4.312,1.298-5.94,2.068v0.044l1.298,0.154
		c0.286,0.044,0.836,0.044,0.836,0.462c0,0.308-0.308,0.374-0.55,0.396L272.752,146.073z"/>
</g>
</svg>
