<?xml version="1.0" encoding="utf-8"?>
<!-- Generator: Adobe Illustrator 16.2.1, SVG Export Plug-In . SVG Version: 6.00 Build 0)  -->
<!DOCTYPE svg PUBLIC "-//W3C//DTD SVG 1.1//EN" "http://www.w3.org/Graphics/SVG/1.1/DTD/svg11.dtd">
<svg version="1.1" id="Layer_1" xmlns="http://www.w3.org/2000/svg" xmlns:xlink="http://www.w3.org/1999/xlink" x="0px" y="0px"
	 width="300px" height="200px" viewBox="0 0 300 200" enable-background="new 0 0 300 200" xml:space="preserve">
<g>
	<g>
		<path fill-rule="evenodd" clip-rule="evenodd" fill="#27355D" d="M245.017,195.188c-0.352-0.277-0.708-0.549-1.076-0.807
			c-41.11-28.815-84.116-54.391-129.715-75.488c-10.174-4.708-20.532-8.995-31.455-11.72c-0.882-0.218-1.035-0.676-1.025-1.476
			c0.034-3.34,0.083-6.686-0.02-10.023c-0.042-1.352,0.469-2.043,1.604-2.679c9.187-5.137,18.144-10.638,26.323-17.305
			c5.514-4.494,10.624-9.378,14.208-15.629c2.617-4.564,3.781-9.42,2.609-14.66c-1.945-8.701-7.412-14.94-14.544-19.71
			c-4.076-2.726-8.612-4.797-13.046-6.95C88.9,13.899,78.611,9.897,67.614,8.011c-2.643-0.454-5.32-0.712-7.98-1.059H47.062
			c-0.583,0.099-1.165,0.225-1.752,0.292c-3.817,0.432-7.562,1.279-10.549,3.786c-5.806,4.872-7.089,8.615-4.081,14.483
			c0.272,0.532,0.552,1.062,0.861,1.573c3.362,5.544,8.058,9.854,12.954,13.978c0.163,0.137,0.395,0.191,0.595,0.284
			c-1.823-2.477-3.894-4.686-5.696-7.095c-2.292-3.064-4.596-6.161-6.471-9.482c-1.848-3.271-0.753-6.408,2.516-8.285
			c1.363-0.782,2.887-1.415,4.417-1.753c9.204-2.043,18.424-1.712,27.607,0.153c11.988,2.435,23.297,6.861,34.274,12.135
			c6.444,3.096,11.698,7.757,15.875,13.548c3.654,5.063,3.886,10.398,0.832,15.873c-2.391,4.286-5.695,7.796-9.311,11.041
			c-5.923,5.313-12.474,9.771-19.222,13.949c-2.489,1.539-5.021,3.01-7.752,4.644c-0.269-0.882-0.559-1.514-0.643-2.172
			c-0.177-1.382-0.322-2.777-0.346-4.171c-0.202-11.617-0.417-23.236-0.534-34.854c-0.065-6.456-1.86-12.484-4.294-18.352
			c-0.595-1.432-1.603-2.761-2.665-3.915c-1.164-1.265-3.271-1.288-4.472-0.286c0.299,0.326,0.548,0.721,0.901,0.963
			c1.673,1.148,2.287,2.841,2.435,4.738c0.596,7.65,1.172,15.302,1.689,22.958c0.016,0.232,0.168,6.316,0.17,6.409
			c0.127,10.922,0.255,21.843,0.348,32.766c0.002,0.356-0.288,0.896-0.59,1.044c-3.473,1.71-7.003,3.3-10.457,5.044
			c-3.597,1.815-7.256,3.556-10.642,5.716c-2.578,1.646-2.378,3.812,0.298,5.354c1.704,0.981,3.604,1.825,5.519,2.198
			c4.833,0.94,9.718,1.619,14.597,2.303c1.081,0.15,1.321,0.564,1.46,1.574c0.838,6.117,1.623,12.251,2.731,18.324
			c0.77,4.211,2.009,8.353,4.637,11.879c1.136,1.523,2.573,2.865,4.615,2.547c1.996-0.311,2.775-2.093,3.503-3.764
			c0.036-0.081,0.005-0.191,0.005-0.289c-1.019-1.462-1.87-0.065-2.955,0.252c-3.359-9.188-5.379-18.562-5.036-28.627
			c2.653,0.701,5.137,1.245,7.548,2.014c13.137,4.191,25.681,9.838,38.154,15.646c21.972,10.229,43.472,21.387,64.685,33.098
			c17.457,9.635,34.75,19.55,51.379,30.582c0.266,0.177,0.555,0.315,0.983,0.557C245.076,195.332,245.071,195.231,245.017,195.188z
			 M74.6,105.54c-3.363-0.422-6.797-0.427-10.278-2.328c3.613-1.686,6.832-3.188,10.278-4.798V105.54z"/>
		<path fill-rule="evenodd" clip-rule="evenodd" fill="#27355D" d="M170.522,103.873c0.155-2.003,0.268-3.967,0.467-5.926
			c1.082-10.659,2.173-21.319,3.304-31.973c0.131-1.228,0.532-2.429,0.817-3.641c0.257-1.078,0.76-1.729,2.056-1.672
			c1.284,0.058,2.268,0.543,2.412,1.765c0.238,2.065,0.392,4.175,0.246,6.244c-0.487,6.856-1.126,13.703-1.701,20.555
			c-0.233,2.779-0.457,5.561-0.677,8.343c-0.031,0.398-0.006,0.801-0.006,1.201c0.157,0.029,0.313,0.062,0.47,0.093
			c0.186-0.555,0.382-1.107,0.552-1.669c1.801-5.957,3.536-11.934,5.435-17.858c0.509-1.589,1.394-3.095,2.307-4.509
			c1.715-2.649,4.669-2.761,6.724-0.327c2.015,2.383,2.679,5.328,3.131,8.286c0.44,2.901,0.926,5.849,0.862,8.764
			c-0.141,6.289,1.376,12.253,2.99,18.216c0.664,2.449,1.533,4.846,2.395,7.235c0.42,1.166,0.984,2.291,1.579,3.385
			c2.789,5.143,5.139,5.653,9.764,2.156c0.754-0.567,1.481-1.168,2.461-1.944c-0.148,0.51-0.151,0.803-0.296,0.975
			c-1.572,1.851-2.957,3.933-4.802,5.462c-3.436,2.848-8.397,2.166-11.256-1.247c-3.059-3.655-4.487-8.071-5.705-12.555
			c-0.776-2.874-1.376-5.793-2.101-8.896c-2.255,0.745-4.424,1.645-6.677,2.157c-2.117,0.48-3.073,1.588-3.616,3.668
			c-0.877,3.366-2.11,6.645-3.271,9.932c-0.306,0.871-0.725,1.819-1.375,2.429c-1.798,1.685-3.729,1.502-5.317-0.398
			c-1.716-2.052-1.897-4.553-1.852-7.073c0.028-1.537,0.186-3.072,0.296-4.779c-7.651-0.598-9.806-6.074-11.081-12.618
			c-0.42,0.455-0.716,0.732-0.965,1.048c-3.482,4.437-7.024,8.814-11.417,12.419c-2.401,1.971-5.023,3.264-8.221,2.854
			c-0.651-0.083-1.375-0.293-1.881-0.685c-3.047-2.358-4.086-5.686-4.177-9.356c-0.15-5.996,1.071-11.803,2.794-17.497
			c1.009-3.334,2.362-6.564,3.372-9.897c0.723-2.385,2.735-3.468,4.421-4.877c0.329-0.275,1.255-0.107,1.755,0.148
			c0.887,0.456,1.164,1.326,0.874,2.307c-0.684,2.291-1.479,4.554-2.049,6.872c-1.426,5.798-2.888,11.595-4.045,17.45
			c-0.457,2.309-0.224,4.772-0.14,7.161c0.023,0.682,0.625,1.345,1.171,2.434c3-3.188,5.808-6.008,8.425-8.99
			c4.587-5.223,8.423-10.993,11.994-16.945c1.23-2.052,3.35-2.133,4.908-0.44c1.227,1.333,1.353,2.675,1.065,4.346
			c-0.608,3.533-1.086,7.09-1.543,10.645C165.068,99.214,167.772,103.085,170.522,103.873z M189.386,84.22
			c-0.174-0.016-0.351-0.03-0.525-0.046c-1.692,6.327-3.384,12.653-5.146,19.239c2.766-0.248,5.309-0.472,7.914-0.704
			C190.866,96.428,190.126,90.324,189.386,84.22z"/>
		<path fill-rule="evenodd" clip-rule="evenodd" fill="#27355D" d="M255.514,76.244c-0.832-0.093-1.424-0.303-1.949-0.193
			c-2.375,0.496-4.811,0.863-7.071,1.694c-2.26,0.831-2.368,1.775-0.874,3.652c4.04,5.08,9,9.194,14.198,12.981
			c4.518,3.291,5.538,7.736,4.668,12.758c-0.287,1.669-1.446,3.48-2.739,4.629c-3.142,2.786-7.008,4.177-11.243,4.128
			c-2.367-0.028-4.606-0.931-6.087-2.774c-1.068-1.328-1.573-3.104-2.509-5.057c-6.511,0.164-10.758-3.79-13.457-10.061
			c-1.716,2.093-3.231,4.1-4.914,5.96c-2.757,3.056-5.733,5.94-9.912,6.873c-2.776,0.619-5.65,0.706-8.378-0.442
			c-2.621-1.111-3.996-3.017-4.145-5.985c-0.253-5.019,1.054-9.571,3.628-13.794c2.735-4.489,6.843-6.546,12.007-7.424
			c3.459-0.586,6.347,0.859,9.699,1.266c0.054-0.652,0.106-1.271,0.157-1.89c0.166-1.999,0.812-3.791,2.276-5.222
			c1.078-1.053,2.986-1.446,3.95-0.827c1.027,0.66,1.982,3.214,1.618,4.363c-1.151,3.641-1.209,7.387-0.795,11.11
			c0.522,4.67,3.208,7.791,7.654,9.205c4.931,1.571,10.001,1.519,15.083,0.794c0.246-0.034,0.488-0.107,0.724-0.184
			c0.076-0.026,0.137-0.121,0.432-0.401c-2.144-1.942-4.222-3.917-6.4-5.773c-2.24-1.906-4.621-3.642-6.861-5.545
			c-2.857-2.427-4.941-5.461-6.376-8.908c-0.982-2.364-0.498-4.647,1.392-6.28c1.551-1.342,3.404-2.41,5.271-3.294
			c1.601-0.76,3.392-1.148,5.125-1.6c3.05-0.796,5.461,0.237,7.111,2.943C257.888,74.736,256.266,75.377,255.514,76.244z
			 M224.652,88.865c-1.806,0.142-3.236,0.213-4.662,0.372c-7.253,0.813-11.925,5.636-12.394,11.673
			c-0.224,2.895,1.288,4.584,4.089,3.781c1.405-0.4,2.828-1.079,3.973-1.978C220.086,99.23,222.298,94.259,224.652,88.865z
			 M258.355,104.184c-3.865,1.344-7.675,2.665-11.411,3.961c1.15,1.311,4.087,1.912,6.311,1.112
			C255.774,108.351,257.888,107.029,258.355,104.184z"/>
		<path fill-rule="evenodd" clip-rule="evenodd" fill="#27355D" d="M124.8,81.364c0.434,0.695,0.682,1.148,0.983,1.562
			c0.848,1.17,1.753,2.299,2.572,3.487c3.012,4.371,3.29,8.895,0.853,13.647c-3.171,6.188-7.496,11.093-14.492,12.864
			c-4.272,1.083-8.635,1.556-12.932-0.07c-4.195-1.59-5.852-4.171-6.008-8.627c-0.223-6.331,2.703-11.305,6.529-15.919
			c3.678-4.437,7.858-8.438,12.689-11.509c2.887-1.835,6.4-3.237,10.053-1.786c1.138,0.451,2.299,1.285,3.015,2.262
			c1.354,1.849,0.756,3.499-1.367,4.354C126.3,81.791,125.727,81.51,124.8,81.364z M107.829,92.984
			c-0.143-0.087-0.285-0.174-0.428-0.262c-0.564,0.641-1.331,1.193-1.659,1.938c-1.258,2.86-2.466,5.748-3.505,8.692
			c-0.543,1.54,0.526,3.33,2.204,3.689c1.526,0.327,3.253,0.639,4.697,0.245c4.19-1.143,8.181-2.871,11.545-5.726
			c5.426-4.606,4.156-13.3-2.349-16.305c-2.518-1.162-3.19-1.034-5.017,0.962c-0.304,0.33-0.588,0.679-0.912,0.989
			c-2.204,2.119-4.043,4.362-3.327,7.764c0.197,0.934-0.411,1.073-1.25,0.684C107.829,94.759,107.829,93.873,107.829,92.984z"/>
		<path fill-rule="evenodd" clip-rule="evenodd" fill="#27355D" d="M274.537,115.013c-1.418,1.032-2.596,0.73-3.802-0.144
			c-2.574-1.866-3.668-4.573-3.643-7.526c0.051-6.119,0.231-12.255,0.759-18.35c0.396-4.547,1.372-9.048,2.197-13.551
			c0.202-1.098,0.722-2.182,1.291-3.157c0.718-1.231,1.571-1.169,2.685-0.287c1.542,1.222,1.846,2.666,1.64,4.576
			c-0.853,7.929-1.697,15.863-2.229,23.816c-0.209,3.148,0.397,6.353,0.648,9.53C274.217,111.606,274.383,113.29,274.537,115.013z"
			/>
		<path fill-rule="evenodd" clip-rule="evenodd" fill="#27355D" d="M271.079,54.275c-0.263-2.454,0.831-4.647,2.776-6.602
			c1.703-1.708,3.379-1.634,5.157-0.74c2.387,1.198,4.244,3.135,4.72,5.79c0.631,3.514-0.567,6.496-3.74,8.421
			c-0.549,0.333-1.307,0.458-1.965,0.449C273.35,61.526,271.079,59.218,271.079,54.275z"/>
	</g>
</g>
</svg>
